# xmcd CD database file
#
# Track frame offsets:
#	150
#	15151
#	29417
#	43573
#	57383
#	70871
#	83905
#	95229
#	107378
#	122227
#	136252
#	150586
#	164574
#	178546
#	192979
#	206816
#	219024
#	232462
#	245330
#
# Disc length: 3442 seconds
#
# Revision: 0
# Processed by: cddbd v1.5.2PL0 Copyright (c) Steve Scherf et al.
# Submitted via: CDex 1.70beta2
#
DISCID=080d7013
DTITLE=Frank Teschmacher - Giants of Jazz [CD2]
DYEAR=1900
DGENRE=Jazz
TTITLE0=Cherry: The Big Aces
TTITLE1=Cherry: The Big Aces 
TTITLE2=Trying to Stop My Crying: Joe ‘Wingy’ Manone and His Club Royale Orchestra
TTITLE3=Isn’t There a Little Love?: Joe `Wingy’ Manone and His Club Royale Orchestra 
TTITLE4=Farewell Blues: Ted Lewis and His Band
TTITLE5=Wabash Blues: Ted Lewis and His Band 
TTITLE6=Copenhagen: Elmer Schoebel and His Friar’s Society Orchestra 
TTITLE7=Prince of Wails: Elmer Schoebel and His Friar’s Society Orchestra 
TTITLE8=Wailing Blues: The Cellar Boys
TTITLE9=Wailing Blues: The Cellar Boys
TTITLE10=Barrel House Stomp: The Cellar Boys 
TTITLE11=Barrel House Stomp: The Cellar Boys
TTITLE12=Barrel House Stomp: The Cellar Boys 
TTITLE13=Old Fashioned Girl: Lennie Hayton’s Blue Four
TTITLE14=Anytime, Anyday, Anywhere: Lennie Hayton’s Blue Four 
TTITLE15=Limehouse Blues: The Original Wolverines
TTITLE16=Dear Old Southland: The Original Wolverines
TTITLE17=Business in F: Howard Thomas and His Orchestra
TTITLE18=In the Shade of the Old Apple Tree: Howard Thomas and His Orchestra
EXTD=
EXTT0=
EXTT1=
EXTT2=
EXTT3=
EXTT4=
EXTT5=
EXTT6=
EXTT7=
EXTT8=
EXTT9=
EXTT10=
EXTT11=
EXTT12=
EXTT13=
EXTT14=
EXTT15=
EXTT16=
EXTT17=
EXTT18=
PLAYORDER=
